<?xml version="1.0" encoding="UTF-8" standalone="no"?>
<!-- Created with Inkscape (http://www.inkscape.org/) -->

<svg
   width="84.691666mm"
   height="27.516666mm"
   viewBox="0 0 84.691666 27.516666"
   version="1.1"
   id="svg1"
   inkscape:version="1.3 (0e150ed6c4, 2023-07-21)"
   sodipodi:docname="kukaolen1.svg"
   inkscape:export-filename="kukaolen.svg"
   inkscape:export-xdpi="96"
   inkscape:export-ydpi="96"
   xml:space="preserve"
   xmlns:inkscape="http://www.inkscape.org/namespaces/inkscape"
   xmlns:sodipodi="http://sodipodi.sourceforge.net/DTD/sodipodi-0.dtd"
   xmlns="http://www.w3.org/2000/svg"
   xmlns:svg="http://www.w3.org/2000/svg"><sodipodi:namedview
     id="namedview1"
     pagecolor="#ffffff"
     bordercolor="#000000"
     borderopacity="0.25"
     inkscape:showpageshadow="2"
     inkscape:pageopacity="0.0"
     inkscape:pagecheckerboard="0"
     inkscape:deskcolor="#d1d1d1"
     inkscape:document-units="px"
     inkscape:zoom="2.8284271"
     inkscape:cx="121.44559"
     inkscape:cy="13.258252"
     inkscape:window-width="1920"
     inkscape:window-height="1017"
     inkscape:window-x="1912"
     inkscape:window-y="-8"
     inkscape:window-maximized="1"
     inkscape:current-layer="g7"
     showgrid="true"><inkscape:grid
       id="grid14"
       units="px"
       originx="0.094487815"
       originy="-1.1257382e-07"
       spacingx="0.26458332"
       spacingy="0.26458333"
       empcolor="#0099e5"
       empopacity="0.30196078"
       color="#0099e5"
       opacity="0.14901961"
       empspacing="5"
       dotted="false"
       gridanglex="30"
       gridanglez="30"
       visible="true" /></sodipodi:namedview><defs
     id="defs1" /><g
     inkscape:groupmode="layer"
     inkscape:label="GlyphLayer-0"
     style="display:inline"
     id="g4"
     transform="translate(-18.424451,-41.963459)"><rect
       style="display:inline;fill:#8f916b;fill-opacity:1;stroke-width:0.264583"
       id="rect10"
       width="84.666664"
       height="27.516666"
       x="18.449451"
       y="41.963459" /><path
       style="fill:#ddb040;fill-opacity:1;stroke:#ddb040;stroke-width:0.188976;stroke-dasharray:none;stroke-opacity:1"
       d="M 0,52 V 0.125 l 100.0625,0.0117393 100.0625,0.0117393 -0.75,0.59587322 C 198.9625,1.0720821 167.18125,24.409401 128.75,52.605062 L 58.875,103.8699 29.4375,103.87245 0,103.875 Z"
       id="path14"
       transform="matrix(0.26458333,0,0,0.26458333,18.449451,41.963459)" /></g><g
     inkscape:groupmode="layer"
     inkscape:label="GlyphLayer-E"
     style="display:inline"
     id="g7"
     transform="translate(-18.424451,-41.963459)"><path
       d="m 89.356059,55.761245 q -2.018634,0 -3.456142,-1.437508 -1.437513,-1.437514 -1.437513,-3.456141 0,-2.018634 1.437513,-3.456142 1.437508,-1.437508 3.456142,-1.437508 2.018628,0 3.456141,1.437508 1.437508,1.437508 1.437508,3.456142 0,2.018627 -1.437508,3.456141 -1.437513,1.437508 -3.456141,1.437508 z m -9.787305,9.787304 v -3.425554 q 0,-1.039901 0.535243,-1.911585 0.535246,-0.871684 1.422216,-1.330461 1.896294,-0.948142 3.853753,-1.422216 1.957459,-0.474071 3.976093,-0.474071 2.018628,0 3.97609,0.474071 1.957459,0.474074 3.85375,1.422216 0.886974,0.458787 1.422217,1.330461 0.535238,0.871684 0.535238,1.911585 v 3.425554 z m 2.446828,-2.446826 h 14.680953 v -0.978728 q 0,-0.336436 -0.168217,-0.611708 -0.16822,-0.275262 -0.443482,-0.428175 -1.651606,-0.825806 -3.333796,-1.238707 -1.682197,-0.412917 -3.394974,-0.412917 -1.712778,0 -3.39497,0.412917 -1.682193,0.412916 -3.333802,1.238707 -0.275262,0.152913 -0.443481,0.428175 -0.168218,0.275261 -0.168218,0.611708 z m 7.340477,-9.787301 q 1.009314,0 1.728071,-0.718755 0.718751,-0.718756 0.718751,-1.728071 0,-1.009314 -0.718751,-1.72807 -0.718757,-0.718757 -1.728071,-0.718757 -1.009315,0 -1.728071,0.718757 -0.718757,0.718756 -0.718757,1.72807 0,1.009315 0.718757,1.728071 0.718756,0.718755 1.728071,0.718755 z m 0,-2.446826 z m 0,12.234127 z"
       id="path1"
       style="fill:#f1efe4;fill-opacity:1;stroke-width:0.0305852" /></g></svg>
