<?xml version="1.0" encoding="UTF-8" standalone="no"?>
<!-- Created with Inkscape (http://www.inkscape.org/) -->

<svg
   width="84.691666mm"
   height="27.516666mm"
   viewBox="0 0 84.691666 27.516666"
   version="1.1"
   id="svg1"
   inkscape:version="1.3 (0e150ed6c4, 2023-07-21)"
   sodipodi:docname="otayhteytta1.svg"
   inkscape:export-filename="otayhteytta.jpg"
   inkscape:export-xdpi="96"
   inkscape:export-ydpi="96"
   xml:space="preserve"
   xmlns:inkscape="http://www.inkscape.org/namespaces/inkscape"
   xmlns:sodipodi="http://sodipodi.sourceforge.net/DTD/sodipodi-0.dtd"
   xmlns="http://www.w3.org/2000/svg"
   xmlns:svg="http://www.w3.org/2000/svg"><sodipodi:namedview
     id="namedview1"
     pagecolor="#ffffff"
     bordercolor="#000000"
     borderopacity="0.25"
     inkscape:showpageshadow="2"
     inkscape:pageopacity="0.0"
     inkscape:pagecheckerboard="0"
     inkscape:deskcolor="#d1d1d1"
     inkscape:document-units="px"
     inkscape:zoom="2.8284271"
     inkscape:cx="121.44559"
     inkscape:cy="13.258252"
     inkscape:window-width="1920"
     inkscape:window-height="1017"
     inkscape:window-x="1912"
     inkscape:window-y="-8"
     inkscape:window-maximized="1"
     inkscape:current-layer="g7"
     showgrid="true"><inkscape:grid
       id="grid14"
       units="px"
       originx="0.094488004"
       originy="-5.6286922e-08"
       spacingx="0.26458332"
       spacingy="0.26458333"
       empcolor="#0099e5"
       empopacity="0.30196078"
       color="#0099e5"
       opacity="0.14901961"
       empspacing="5"
       dotted="false"
       gridanglex="30"
       gridanglez="30"
       visible="true" /></sodipodi:namedview><defs
     id="defs1"><rect
       x="190.04901"
       y="297.37885"
       width="56.741257"
       height="68.021141"
       id="rect12" /><rect
       x="168.17287"
       y="399.23965"
       width="140.82768"
       height="183.21271"
       id="rect3" /><rect
       x="69.730209"
       y="356.85461"
       width="251.57567"
       height="150.3985"
       id="rect1" /></defs><g
     inkscape:label="Layer 1"
     inkscape:groupmode="layer"
     id="layer1"
     transform="translate(-18.424451,-41.963459)"><text
       xml:space="preserve"
       transform="scale(0.26458333)"
       id="text1"
       style="white-space:pre;shape-inside:url(#rect1);display:inline;fill:#000000" /><text
       xml:space="preserve"
       transform="scale(0.26458333)"
       id="text3"
       style="font-style:normal;font-variant:normal;font-weight:normal;font-stretch:normal;font-family:'Material Icons';-inkscape-font-specification:'Material Icons';white-space:pre;shape-inside:url(#rect3);display:inline;fill:#000000" /></g><g
     inkscape:groupmode="layer"
     inkscape:label="GlyphLayer-E"
     style="display:inline"
     id="g3"
     transform="translate(-18.424451,-41.963459)" /><g
     inkscape:groupmode="layer"
     inkscape:label="GlyphLayer-0"
     style="display:inline"
     id="g4"
     transform="translate(-18.424451,-41.963459)"><rect
       style="display:inline;fill:#8f916b;fill-opacity:1;stroke-width:0.264583"
       id="rect10"
       width="84.666664"
       height="27.516666"
       x="18.449451"
       y="41.963459" /><path
       style="fill:#ddb040;fill-opacity:1;stroke:#ddb040;stroke-width:0.188976;stroke-dasharray:none;stroke-opacity:1"
       d="M 0,52 V 0.125 l 100.0625,0.0117393 100.0625,0.0117393 -0.75,0.59587322 C 198.9625,1.0720821 167.18125,24.409401 128.75,52.605062 L 58.875,103.8699 29.4375,103.87245 0,103.875 Z"
       id="path14"
       transform="matrix(0.26458333,0,0,0.26458333,18.449451,41.963459)" /></g><g
     inkscape:groupmode="layer"
     inkscape:label="GlyphLayer-E"
     style="display:inline"
     id="g7"
     transform="translate(-18.424451,-41.963459)"><path
       d="m 89.19074,65.516451 q -2.033912,0 -3.822771,-0.771905 -1.788862,-0.771904 -3.11213,-2.095172 -1.323266,-1.323266 -2.095169,-3.112128 -0.771908,-1.788858 -0.771908,-3.82277 0,-2.033909 0.771908,-3.82277 0.771903,-1.78886 2.095169,-3.112128 1.323268,-1.323264 3.11213,-2.095172 1.788859,-0.771905 3.822771,-0.771905 2.033909,0 3.82277,0.771905 1.788859,0.771908 3.112129,2.095172 1.323264,1.323268 2.095168,3.112128 0.771908,1.788861 0.771908,3.82277 v 1.421287 q 0,1.44579 -0.992451,2.462748 -0.992449,1.016954 -2.438241,1.016954 -0.857672,0 -1.617325,-0.367578 -0.759654,-0.367579 -1.274259,-1.053713 -0.710645,0.710644 -1.605073,1.065963 -0.894429,0.355317 -1.874626,0.355317 -2.033912,0 -3.467451,-1.433538 -1.433538,-1.433539 -1.433538,-3.467452 0,-2.033908 1.433538,-3.467446 1.433539,-1.433542 3.467451,-1.433542 2.033909,0 3.467447,1.433542 1.433539,1.433538 1.433539,3.467446 v 1.421288 q 0,0.637127 0.416584,1.078218 0.416584,0.441088 1.053713,0.441088 0.637127,0 1.053712,-0.441088 0.416582,-0.441091 0.416582,-1.078218 v -1.421288 q 0,-3.283662 -2.278958,-5.562618 -2.278957,-2.278959 -5.562619,-2.278959 -3.283665,0 -5.562623,2.278959 -2.278958,2.278956 -2.278958,5.562618 0,3.283662 2.278958,5.562625 2.278958,2.278957 5.562623,2.278957 h 4.900986 v 1.960394 z m 0,-6.861383 q 1.225246,0 2.082918,-0.857671 0.857675,-0.857674 0.857675,-2.082921 0,-1.225247 -0.857675,-2.082918 -0.857672,-0.857677 -2.082918,-0.857677 -1.22525,0 -2.082921,0.857677 -0.857672,0.857671 -0.857672,2.082918 0,1.225247 0.857672,2.082921 0.857671,0.857671 2.082921,0.857671 z"
       id="path1"
       style="fill:#eeede7;fill-opacity:1;stroke-width:0.024505" /></g><g
     inkscape:groupmode="layer"
     inkscape:label="GlyphLayer-0"
     style="display:inline"
     id="g9"
     transform="translate(-18.424451,-41.963459)" /></svg>
