<?xml version="1.0" encoding="UTF-8" standalone="no"?>
<!-- Created with Inkscape (http://www.inkscape.org/) -->

<svg
   width="84.691666mm"
   height="27.516666mm"
   viewBox="0 0 84.691666 27.516666"
   version="1.1"
   id="svg1"
   inkscape:version="1.3 (0e150ed6c4, 2023-07-21)"
   sodipodi:docname="tyohistoria1.svg"
   inkscape:export-filename="tyohistoria.jpg"
   inkscape:export-xdpi="96"
   inkscape:export-ydpi="96"
   xml:space="preserve"
   xmlns:inkscape="http://www.inkscape.org/namespaces/inkscape"
   xmlns:sodipodi="http://sodipodi.sourceforge.net/DTD/sodipodi-0.dtd"
   xmlns="http://www.w3.org/2000/svg"
   xmlns:svg="http://www.w3.org/2000/svg"><sodipodi:namedview
     id="namedview1"
     pagecolor="#ffffff"
     bordercolor="#000000"
     borderopacity="0.25"
     inkscape:showpageshadow="2"
     inkscape:pageopacity="0.0"
     inkscape:pagecheckerboard="0"
     inkscape:deskcolor="#d1d1d1"
     inkscape:document-units="px"
     inkscape:zoom="2.8284271"
     inkscape:cx="167.23075"
     inkscape:cy="64.16994"
     inkscape:window-width="1920"
     inkscape:window-height="1017"
     inkscape:window-x="1912"
     inkscape:window-y="-8"
     inkscape:window-maximized="1"
     inkscape:current-layer="g7"
     showgrid="true"><inkscape:grid
       id="grid14"
       units="px"
       originx="0.094488004"
       originy="-5.6286922e-08"
       spacingx="0.26458332"
       spacingy="0.26458333"
       empcolor="#0099e5"
       empopacity="0.30196078"
       color="#0099e5"
       opacity="0.14901961"
       empspacing="5"
       dotted="false"
       gridanglex="30"
       gridanglez="30"
       visible="true" /></sodipodi:namedview><defs
     id="defs1"><rect
       x="190.04901"
       y="297.37885"
       width="56.741257"
       height="68.021141"
       id="rect12" /><rect
       x="168.17287"
       y="399.23965"
       width="140.82768"
       height="183.21271"
       id="rect3" /><rect
       x="69.730209"
       y="356.85461"
       width="251.57567"
       height="150.3985"
       id="rect1" /></defs><g
     inkscape:label="Layer 1"
     inkscape:groupmode="layer"
     id="layer1"
     transform="translate(-18.424451,-41.963459)"><text
       xml:space="preserve"
       transform="scale(0.26458333)"
       id="text1"
       style="white-space:pre;shape-inside:url(#rect1);display:inline;fill:#000000" /><text
       xml:space="preserve"
       transform="scale(0.26458333)"
       id="text3"
       style="font-style:normal;font-variant:normal;font-weight:normal;font-stretch:normal;font-family:'Material Icons';-inkscape-font-specification:'Material Icons';white-space:pre;shape-inside:url(#rect3);display:inline;fill:#000000" /></g><g
     inkscape:groupmode="layer"
     inkscape:label="GlyphLayer-E"
     style="display:inline"
     id="g3"
     transform="translate(-18.424451,-41.963459)" /><g
     inkscape:groupmode="layer"
     inkscape:label="GlyphLayer-0"
     style="display:inline"
     id="g4"
     transform="translate(-18.424451,-41.963459)"><rect
       style="display:inline;fill:#8f916b;fill-opacity:1;stroke-width:0.264583"
       id="rect10"
       width="84.666664"
       height="27.516666"
       x="18.449451"
       y="41.963459" /><path
       style="fill:#ddb040;fill-opacity:1;stroke:#ddb040;stroke-width:0.188976;stroke-dasharray:none;stroke-opacity:1"
       d="M 0,52 V 0.125 l 100.0625,0.0117393 100.0625,0.0117393 -0.75,0.59587322 C 198.9625,1.0720821 167.18125,24.409401 128.75,52.605062 L 58.875,103.8699 29.4375,103.87245 0,103.875 Z"
       id="path14"
       transform="matrix(0.26458333,0,0,0.26458333,18.449451,41.963459)" /></g><g
     inkscape:groupmode="layer"
     inkscape:label="GlyphLayer-E"
     style="display:inline"
     id="g7"
     transform="translate(-18.424451,-41.963459)"><path
       d="m 79.81059,65.603946 q -0.880295,0 -1.507176,-0.60479 -0.626877,-0.604788 -0.626877,-1.454071 V 52.221369 q 0,-0.849279 0.626877,-1.454068 0.626881,-0.604793 1.507176,-0.604793 h 4.268098 v -2.058853 q 0,-0.849283 0.626877,-1.454072 0.626878,-0.604789 1.507173,-0.604789 h 4.2681 q 0.880295,0 1.507173,0.604789 0.626876,0.604789 0.626876,1.454072 v 2.058853 h 4.268101 q 0.880293,0 1.507174,0.604793 0.626877,0.604789 0.626877,1.454068 v 11.323716 q 0,0.849283 -0.626877,1.454071 -0.626881,0.60479 -1.507174,0.60479 z m 0,-2.058861 H 96.882988 V 52.221369 H 79.81059 Z m 6.402148,-13.382577 h 4.2681 v -2.058853 h -4.2681 z M 79.81059,63.545085 V 52.221369 Z"
       id="path1"
       style="fill:#eeede7;fill-opacity:1;stroke-width:0.0262013" /></g><g
     inkscape:groupmode="layer"
     inkscape:label="GlyphLayer-0"
     style="display:inline"
     id="g9"
     transform="translate(-18.424451,-41.963459)" /></svg>
